<svg width="155" height="41" viewBox="0 0 155 41" fill="none" xmlns="http://www.w3.org/2000/svg">
<path d="M 28.2 40 l -7.52 0 l -1.4 -4.52 l -10.4 0 l -1.4 4.52 l -7.52 0 l 10.48 -28.24 l 7.36 0 Z M 17.68 30.4 l -3.68 -11.92 l -3.48 11.92 l 7.16 0 Z M 57.6 40 l -7.96 0 l -7.52 -12.8 l -4.36 4.52 l 0 8.28 l -6.72 0 l 0 -28.24 l 6.72 0 l 0 11.52 l 10.56 -11.52 l 8.52 0 l -10 10.48 Z M 84.8 40 l -5.52 0 l 0 -2.6 c -0.76 0.68 -1.36 1.16 -1.72 1.4 c -2.64 1.76 -5.48 1.84 -6.6 1.84 c -1 0 -3.08 -0.08 -5.44 -1.2 c -5.12 -2.48 -7.28 -8.12 -7.28 -13.56 c 0 -2.08 0.4 -9.6 6.96 -13.28 c 1.16 -0.68 3.52 -1.8 6.96 -1.8 c 5.28 0 8.52 2.48 10 3.8 c 1 0.88 1.64 1.68 2.44 2.72 l -5.36 3.24 c -0.12 -0.2 -0.92 -1.48 -1.8 -2.24 c -1.8 -1.64 -3.96 -1.72 -4.76 -1.72 c -0.52 0 -2.4 0.04 -3.88 1 c -1.68 1.08 -3.52 3.56 -3.52 8.08 c 0 0.6 0 4.56 1.96 6.96 c 0.72 0.88 1.68 1.36 2.04 1.56 c 0.52 0.24 1.8 0.76 3.4 0.76 c 0.48 0 1.36 0 2.44 -0.36 c 0.56 -0.2 2.28 -0.88 3.12 -2.6 c 0.44 -0.88 0.56 -2.08 0.6 -2.32 l -6.32 0 l 0 -5.36 l 12.28 0 l 0 15.68 Z" fill="white"/>
</svg>
